<svg width="50" height="50" viewBox="0 0 50 50" xmlns="http://www.w3.org/2000/svg" xmlns:xlink="http://www.w3.org/1999/xlink" id="Layer_1" overflow="hidden"><path d="M45.48 34.91 4.48 34.91C2.82315 34.91 1.48 33.5669 1.48 31.91L1.48 5C1.48 3.34315 2.82315 2 4.48 2L45.48 2C47.1369 2 48.48 3.34315 48.48 5L48.48 31.89C48.491 33.5468 47.1569 34.8989 45.5001 34.9099 45.4934 34.91 45.4867 34.91 45.48 34.91ZM4.52 4C3.96772 4 3.52 4.44771 3.52 5L3.52 31.89C3.52 32.4423 3.96772 32.89 4.52 32.89L45.52 32.89C46.0723 32.89 46.52 32.4423 46.52 31.89L46.52 5C46.52 4.44771 46.0723 4 45.52 4Z" fill="#232F3E"/><path d="M45 48 5 48C3.07765 47.9838 1.52172 46.4323 1.5 44.51L1.5 40.18C1.50541 38.246 3.06605 36.6764 5 36.66L45 36.66C46.9418 36.6655 48.5145 38.2382 48.52 40.18L48.52 44.51C48.4981 46.44 46.9302 47.9947 45 48ZM5 38.66C4.16835 38.6709 3.49993 39.3483 3.5 40.18L3.5 44.51C3.51612 45.33 4.17989 45.9894 5 46L45 46C45.8395 46 46.52 45.3195 46.52 44.48L46.52 40.18C46.52 39.3405 45.8395 38.66 45 38.66Z" fill="#232F3E"/><path d="M43.75 31.16 6.25 31.16C5.69771 31.16 5.25 30.7123 5.25 30.16L5.25 6.72C5.25 6.16772 5.69771 5.72 6.25 5.72L43.75 5.72C44.3023 5.72 44.75 6.16772 44.75 6.72L44.75 30.16C44.75 30.7123 44.3023 31.16 43.75 31.16ZM7.25 29.16 42.75 29.16 42.75 7.72 7.25 7.72Z" fill="#232F3E"/><rect x="31.5" y="40.41" rx="1" width="13.25" height="3.88" fill="#232F3E"/></svg>