<svg viewBox="0 0 50 50" xmlns="http://www.w3.org/2000/svg" xmlns:xlink="http://www.w3.org/1999/xlink" overflow="hidden"><defs></defs><g id="Working"><path d="M21.2 16.79C21.2 16.2377 20.7523 15.79 20.2 15.79L14.53 15.79C9.83054 15.7923 5.8848 19.3288 5.37 24L0 24 0 26 5.37 26C5.8848 30.6712 9.83054 34.2077 14.53 34.21L20.2 34.21C20.7523 34.21 21.2 33.7623 21.2 33.21L21.2 28.71 26 28.71 26 26.71 21.2 26.71 21.2 23.29 26 23.29 26 21.29 21.2 21.29ZM19.2 32.21 14.53 32.21C10.548 32.21 7.32 28.982 7.32 25 7.32 21.018 10.548 17.79 14.53 17.79L19.2 17.79Z" fill="#3F8624"/><path d="M50 24 44.63 24C44.1109 19.331 40.1677 15.7969 35.47 15.79L29.8 15.79C29.2477 15.79 28.8 16.2377 28.8 16.79L28.8 33.21C28.8 33.7623 29.2477 34.21 29.8 34.21L35.47 34.21C40.1677 34.2031 44.1109 30.6689 44.63 26L50 26ZM35.47 32.21 30.8 32.21 30.8 17.79 35.47 17.79C39.452 17.79 42.68 21.018 42.68 25 42.68 28.982 39.452 32.21 35.47 32.21Z" fill="#3F8624"/></g></svg>