<svg width="50" height="50" viewBox="0 0 50 50" xmlns="http://www.w3.org/2000/svg" xmlns:xlink="http://www.w3.org/1999/xlink" id="Layer_1" overflow="hidden"><path d="M39.4 39.39 34.4 39.39 34.4 37.39 39.4 37.39C44.18 37.39 46.5 35.27 46.5 30.92 46.5 27.2 44.31 24.87 39.99 23.99 39.5456 23.9001 39.2173 23.5226 39.19 23.07 38.98 19.46 36.88 18.17 35.19 18.17 34.0055 18.1818 32.895 18.7481 32.19 19.7 31.8535 20.1379 31.2257 20.2202 30.7878 19.8837 30.6391 19.7695 30.5255 19.6157 30.46 19.44 29.8511 17.6978 28.8524 16.1176 27.54 14.82 24.4558 11.7245 19.7947 10.8248 15.78 12.55 12.1438 14.2146 9.75396 17.7839 9.6 21.78 9.60191 22.1879 9.62862 22.5953 9.68 23 9.74588 23.504 9.42322 23.9772 8.93 24.1 6.93 24.6 3.5 26.1 3.5 30.82 3.5 30.99 3.5 31.14 3.5 31.3 3.7 34.83 6.68 37.37 10.59 37.37L15.59 37.37 15.59 39.37 10.59 39.37C5.59 39.37 1.77 36.04 1.51 31.45 1.51 31.21 1.51 31.02 1.51 30.82 1.35565 26.9353 3.88728 23.4522 7.63 22.4 7.63 22.19 7.63 21.97 7.63 21.76 7.77702 14.9077 13.4511 9.47204 20.3033 9.61905 23.5548 9.68881 26.6489 11.0321 28.92 13.36 30.0937 14.5101 31.0461 15.8659 31.73 17.36 32.7187 16.5975 33.9314 16.1828 35.18 16.18 37.83 16.18 40.61 18.05 41.18 22.18 45.94 23.39 48.56 26.46 48.56 30.91 48.5 36.38 45.27 39.39 39.4 39.39ZM28.75 39.39 21.25 39.39 21.25 37.39 28.75 37.39Z" fill="#232F3E"/><path d="M31.56 38.45C31.2977 38.4489 31.0463 38.3447 30.86 38.16L25.23 32.54 26.64 31.12 31.56 36 36.48 31.08 37.89 32.5 32.27 38.12C32.088 38.3219 31.8317 38.4411 31.56 38.45Z" fill="#232F3E"/><rect x="30.56" y="22.45" width="2" height="14.06" fill="#232F3E"/><path d="M23.36 28.79 18.44 23.87 13.52 28.79 12.11 27.37 17.73 21.75C18.12 21.3623 18.75 21.3623 19.14 21.75L24.77 27.37Z" fill="#232F3E"/><rect x="17.44" y="22.45" width="2" height="16.88" fill="#232F3E"/></svg>