 <svg version="1.0" xmlns="http://www.w3.org/2000/svg" width="700.000000pt" height="700.000000pt" viewBox="0 0 700.000000 700.000000" preserveAspectRatio="xMidYMid meet">
<metadata>
Created by potrace 1.12, written by Peter Selinger 2001-2015
</metadata>
<g transform="translate(0.000000,700.000000) scale(0.100000,-0.100000)" fill="#000000" stroke="none">
<path d="M3365 4650 c-53 -8 -143 -26 -285 -58 -47 -11 -139 -31 -205 -46
-146 -32 -223 -49 -340 -75 -49 -11 -205 -46 -345 -76 -572 -125 -561 -122
-616 -166 -47 -37 -90 -99 -104 -148 -14 -49 -13 -1103 0 -1153 16 -55 70
-129 119 -162 46 -31 56 -34 316 -92 88 -20 198 -45 245 -56 100 -23 171 -39
300 -68 148 -34 204 -46 370 -85 521 -120 543 -124 695 -124 110 -1 138 4 445
74 135 31 274 62 310 70 36 8 135 31 220 50 182 41 410 93 600 135 296 66 312
72 376 142 81 88 79 71 79 698 l0 555 -28 56 c-36 75 -100 133 -169 154 -29 9
-125 31 -213 50 -88 19 -200 44 -250 55 -49 12 -121 27 -160 35 -38 8 -119 26
-180 39 -60 14 -225 50 -365 81 -140 31 -307 68 -370 82 -178 41 -321 51 -445
33z m223 -69 c8 -4 20 -44 28 -87 21 -118 22 -114 -36 -114 l-50 0 0 -137 c0
-135 0 -137 27 -165 l27 -28 -70 0 -69 0 33 26 32 25 0 140 0 139 -50 0 c-47
0 -50 2 -50 26 0 48 23 169 34 176 15 11 128 10 144 -1z m-111 -608 c92 -47
97 -190 9 -248 -14 -9 -52 -19 -85 -22 l-60 -6 -3 -61 -3 -61 -77 -3 -78 -3 0
210 0 210 43 4 c91 10 215 0 254 -20z m1052 -4 c23 -12 41 -29 41 -36 0 -16
-59 -113 -68 -113 -4 0 -16 7 -26 15 -47 36 -116 3 -116 -55 0 -34 31 -70 60
-70 16 0 20 7 20 35 l0 35 70 0 70 0 0 -80 0 -79 -45 -26 c-52 -31 -133 -42
-191 -26 -59 16 -131 82 -145 134 -14 52 -14 116 0 160 15 43 78 105 127 123
55 20 151 13 203 -17z m-2679 -119 l0 -140 80 0 80 0 0 -70 0 -70 -160 0 -160
0 0 210 0 210 80 0 80 0 0 -140z m533 58 c76 -257 97 -327 97 -332 0 -3 -40
-6 -89 -6 l-88 0 -7 31 c-5 28 -8 30 -43 27 -33 -3 -38 -7 -41 -30 l-3 -28
-90 0 c-50 0 -89 4 -89 10 0 5 6 29 14 52 8 24 33 108 56 188 23 80 43 151 45
158 3 8 34 12 109 12 l105 0 24 -82z m392 -18 c17 -55 33 -100 37 -100 4 0 19
39 33 88 14 48 28 93 30 100 3 9 36 12 120 12 l115 0 0 -210 0 -210 -80 0 -80
0 0 84 c0 47 -4 87 -9 90 -4 3 -16 -20 -26 -52 -9 -31 -21 -72 -27 -90 l-10
-33 -65 3 -66 3 -31 95 -31 95 -3 -97 -3 -98 -79 0 -80 0 0 210 0 210 113 0
113 0 29 -100z m985 -40 l0 -140 80 0 80 0 0 -70 0 -70 -160 0 -160 0 0 210 0
210 80 0 80 0 0 -140z m370 -70 l0 -210 -80 0 -80 0 0 210 0 210 80 0 80 0 0
-210z m670 140 l0 -70 45 0 45 0 0 70 0 70 80 0 80 0 0 -210 0 -210 -80 0 -80
0 0 70 0 70 -45 0 -45 0 0 -70 0 -70 -80 0 -80 0 0 210 0 210 80 0 80 0 0 -70z
m690 0 l0 -69 -57 -3 -58 -3 -3 -138 -3 -138 -77 3 -77 3 -3 138 -3 137 -54 0
-55 0 0 70 0 70 195 0 195 0 0 -70z m-2939 -560 c113 -22 173 -94 173 -210 0
-162 -106 -230 -331 -214 l-93 7 0 208 0 208 48 4 c98 7 151 7 203 -3z m743
-1 c23 -6 55 -21 71 -33 l28 -22 -38 -57 c-21 -31 -41 -57 -44 -57 -3 0 -15 7
-25 15 -31 24 -72 19 -95 -11 -12 -15 -21 -34 -21 -44 0 -26 39 -70 61 -70 15
0 19 7 19 35 l0 35 75 0 75 0 0 -74 c0 -73 -1 -76 -34 -101 -49 -38 -129 -52
-201 -36 -165 37 -222 245 -100 367 61 60 133 77 229 53z m-354 -209 l0 -210
-80 0 -80 0 0 210 0 210 80 0 80 0 0 -210z m670 0 l0 -211 -76 3 -77 3 -3 199
c-2 109 -1 202 2 207 3 5 39 9 80 9 l74 0 0 -210z m440 140 l0 -69 -57 -3 -58
-3 -3 -137 -3 -138 -74 0 -74 0 -3 138 -3 137 -57 3 -58 3 0 69 0 70 195 0
195 0 0 -70z m376 -45 c18 -60 44 -149 58 -198 14 -48 26 -92 26 -97 0 -6 -36
-10 -84 -10 l-84 0 -11 30 c-8 24 -16 30 -38 30 -33 0 -53 -16 -53 -42 0 -16
-10 -18 -91 -18 -72 0 -90 3 -86 14 4 11 42 139 105 354 l15 53 106 -3 105 -3
32 -110z m294 -25 l0 -139 78 -3 77 -3 3 -67 3 -68 -161 0 -160 0 0 210 0 210
80 0 80 0 0 -140z"></path>
<path d="M3340 3850 c0 -27 3 -31 23 -28 16 2 22 10 22 28 0 18 -6 26 -22 28
-20 3 -23 -1 -23 -28z"></path>
<path d="M2246 3783 c-12 -13 -6 -53 9 -53 9 0 15 9 15 24 0 26 -12 40 -24 29z"></path>
<path d="M2460 3150 l0 -80 28 0 c41 0 62 28 62 82 0 52 -21 78 -63 78 l-27 0
0 -80z"></path>
<path d="M4280 3158 c0 -7 -3 -23 -6 -35 -5 -17 -2 -23 10 -23 12 0 16 9 16
35 0 19 -4 35 -10 35 -5 0 -10 -6 -10 -12z"></path>
</g>
</svg>