<?xml version="1.0" standalone="no"?>
<!DOCTYPE svg PUBLIC "-//W3C//DTD SVG 20010904//EN"
 "http://www.w3.org/TR/2001/REC-SVG-20010904/DTD/svg10.dtd">
<svg version="1.0" xmlns="http://www.w3.org/2000/svg"
 width="500.000000pt" height="500.000000pt" viewBox="0 0 500.000000 500.000000"
 preserveAspectRatio="xMidYMid meet">

<g transform="translate(0.000000,500.000000) scale(0.100000,-0.100000)"
fill="#000000" stroke="none">
<path d="M2481 4987 c-8 -11 -11 -87 -9 -273 3 -251 4 -259 23 -259 20 0 20 7
20 269 0 269 -4 299 -34 263z"/>
<path d="M1947 4617 c-3 -8 16 -65 43 -128 36 -85 53 -115 68 -117 11 -2 22 3
24 10 3 7 -17 66 -44 131 -37 88 -54 117 -68 117 -10 0 -20 -6 -23 -13z"/>
<path d="M2957 4517 c-54 -129 -57 -150 -24 -145 18 2 31 24 70 116 49 115 53
142 19 142 -14 0 -29 -27 -65 -113z"/>
<path d="M1313 4504 c-4 -12 44 -66 179 -200 102 -101 192 -184 200 -184 9 0
19 8 22 17 5 13 -39 63 -176 200 -101 101 -191 183 -201 183 -10 0 -20 -7 -24
-16z"/>
<path d="M3463 4342 c-101 -98 -183 -185 -183 -195 0 -10 7 -20 16 -24 20 -7
384 352 384 379 0 41 -44 8 -217 -160z"/>
<path d="M2420 4214 c-113 -19 -153 -29 -205 -46 -505 -172 -741 -752 -502
-1233 68 -137 198 -280 324 -353 l62 -37 3 -320 c3 -310 4 -321 25 -362 15
-28 39 -52 70 -70 l48 -28 231 -3 c258 -4 295 2 351 51 62 54 63 62 63 411 l0
314 77 48 c200 124 344 337 394 578 23 111 24 205 4 321 -61 350 -338 637
-683 711 -72 15 -221 25 -262 18z m272 -78 c290 -73 505 -279 598 -571 34
-106 39 -301 11 -417 -56 -234 -218 -446 -418 -547 l-43 -21 0 -140 0 -140
-80 0 -80 0 0 390 0 389 38 7 c61 11 137 43 160 67 54 58 67 154 30 227 -61
121 -197 118 -254 -5 -20 -42 -24 -66 -24 -147 l0 -98 -129 0 -129 0 -4 103
c-3 85 -8 109 -28 147 -88 158 -270 97 -270 -91 0 -110 51 -166 179 -196 l71
-17 -2 -391 -3 -390 -80 0 -80 0 -3 142 -3 143 -48 24 c-75 38 -184 131 -247
209 -253 317 -241 777 29 1072 207 228 519 324 809 251z m-428 -744 c36 -33
46 -68 46 -163 l0 -92 -41 7 c-106 17 -154 71 -147 164 4 47 10 60 38 84 35
32 68 32 104 0z m555 13 c35 -18 56 -66 54 -124 -3 -74 -55 -122 -150 -137
l-43 -7 0 85 c0 95 26 163 70 185 32 16 35 16 69 -2z m-194 -722 l0 -388 -127
-3 -128 -3 0 393 0 393 127 -2 128 -2 0 -388z m215 -488 l0 -45 -340 0 -340 0
0 45 0 45 340 0 340 0 0 -45z m0 -150 l0 -45 -340 0 -340 0 0 45 0 45 340 0
340 0 0 -45z m-11 -134 c-5 -15 -24 -41 -40 -57 l-30 -29 -249 -3 c-213 -3
-254 -1 -280 13 -30 16 -70 68 -70 93 0 9 75 12 339 12 l340 0 -10 -29z"/>
<path d="M1211 3890 c-32 -19 -3 -43 111 -89 99 -41 121 -46 135 -36 33 24 15
35 -188 115 -25 10 -51 15 -58 10z"/>
<path d="M3650 3850 c-91 -37 -116 -52 -118 -69 -5 -32 27 -27 148 24 89 37
105 47 105 66 0 12 -4 23 -10 25 -5 1 -62 -19 -125 -46z"/>
<path d="M843 3373 c-18 -7 -16 -40 3 -47 24 -9 507 -7 522 3 8 5 12 17 10 27
-3 18 -18 19 -263 21 -143 1 -266 -1 -272 -4z"/>
<path d="M3620 3365 c-10 -12 -10 -18 0 -30 10 -13 52 -15 264 -15 138 0 257
4 264 9 8 5 12 17 10 27 -3 18 -18 19 -264 22 -224 2 -263 0 -274 -13z"/>
<path d="M1320 2900 c-112 -47 -135 -65 -108 -88 10 -7 42 1 123 34 124 50
145 65 125 88 -16 20 -3 23 -140 -34z"/>
<path d="M3541 2941 c-33 -21 -4 -44 114 -93 111 -45 121 -48 132 -31 18 24 5
35 -87 71 -41 17 -91 37 -111 45 -19 9 -41 12 -48 8z"/>
<path d="M1491 2396 c-131 -131 -182 -189 -178 -200 4 -9 14 -16 22 -16 9 0
100 82 201 183 141 139 184 187 178 200 -3 9 -14 17 -23 17 -9 0 -99 -83 -200
-184z"/>
<path d="M3283 2564 c-7 -20 352 -384 379 -384 12 0 18 8 18 23 0 17 -50 71
-184 200 -101 97 -189 177 -195 177 -7 0 -14 -7 -18 -16z"/>
<path d="M160 1475 l0 -185 215 0 215 0 0 45 0 45 -140 0 -140 0 0 140 0 140
-75 0 -75 0 0 -185z"/>
<path d="M822 1633 c-11 -16 -65 -99 -120 -185 l-101 -158 79 0 c78 0 80 0 95
30 l16 30 118 0 119 0 12 -30 c12 -30 13 -30 92 -30 l80 0 -14 23 c-8 12 -61
95 -118 185 l-104 162 -67 0 c-62 0 -69 -2 -87 -27z m123 -145 l27 -48 -61 0
c-34 0 -61 3 -61 6 0 15 55 103 61 96 3 -4 19 -28 34 -54z"/>
<path d="M1260 1475 l0 -185 75 0 74 0 3 113 3 112 65 -113 65 -112 60 2 59 3
68 115 68 115 0 -117 0 -118 75 0 75 0 0 185 0 185 -89 0 -89 0 -82 -130 c-46
-71 -84 -130 -85 -130 -2 0 -41 59 -86 130 l-83 130 -88 0 -88 0 0 -185z"/>
<path d="M2040 1475 l0 -185 75 0 75 0 0 55 0 55 103 0 c117 0 164 11 205 45
34 29 45 69 31 118 -20 72 -108 96 -351 97 l-138 0 0 -185z m295 87 c32 -6 41
-12 43 -31 5 -34 -12 -41 -105 -41 l-83 0 0 40 0 40 53 -1 c28 0 70 -3 92 -7z"/>
<path d="M2600 1475 l0 -185 215 0 215 0 0 45 0 45 -140 0 -140 0 0 140 0 140
-75 0 -75 0 0 -185z"/>
<path d="M3080 1475 l0 -185 75 0 75 0 0 185 0 185 -75 0 -75 0 0 -185z"/>
<path d="M3428 1651 c-115 -37 -168 -150 -119 -256 37 -81 96 -108 231 -109
69 0 106 4 135 17 36 16 41 16 51 2 6 -8 25 -15 43 -15 l31 0 0 90 0 90 -105
0 -105 0 0 -29 c0 -25 5 -30 28 -33 l27 -4 -28 -12 c-66 -28 -147 -5 -165 46
-24 68 18 124 93 124 25 0 57 -7 70 -16 32 -21 175 -23 175 -2 0 23 -40 66
-83 88 -34 18 -62 23 -147 25 -58 1 -117 -2 -132 -6z"/>
<path d="M3870 1475 l0 -185 75 0 75 0 0 75 0 76 98 -3 97 -3 3 -72 3 -73 74
0 75 0 0 185 0 185 -75 0 -75 0 0 -75 0 -75 -100 0 -100 0 0 75 0 75 -75 0
-75 0 0 -185z"/>
<path d="M4430 1615 l0 -45 70 0 70 0 0 -140 0 -140 75 0 74 0 3 138 3 137 73
3 73 3 -3 42 -3 42 -217 3 -218 2 0 -45z"/>
<path d="M950 1086 l0 -186 163 0 c290 0 357 35 357 189 0 64 -3 73 -30 105
-49 55 -99 67 -307 73 l-183 6 0 -187z m329 66 c46 -34 48 -110 4 -139 -15
-10 -55 -18 -104 -21 l-79 -5 0 90 c0 49 3 93 8 97 13 14 145 -3 171 -22z"/>
<path d="M1540 1085 l0 -185 75 0 75 0 0 185 0 185 -75 0 -75 0 0 -185z"/>
<path d="M1888 1261 c-115 -37 -168 -150 -119 -256 37 -81 96 -108 231 -109
69 0 106 4 135 17 36 16 41 16 51 2 6 -8 25 -15 43 -15 l31 0 0 90 0 90 -105
0 -105 0 0 -29 c0 -25 5 -30 28 -33 l27 -4 -28 -12 c-66 -28 -147 -5 -165 46
-24 68 18 124 93 124 25 0 57 -7 70 -16 32 -21 175 -23 175 -2 0 23 -40 66
-83 88 -34 18 -62 23 -147 25 -58 1 -117 -2 -132 -6z"/>
<path d="M2330 1085 l0 -185 75 0 75 0 0 185 0 185 -75 0 -75 0 0 -185z"/>
<path d="M2540 1225 l0 -45 70 0 70 0 0 -140 0 -140 80 0 80 0 0 140 0 140 70
0 70 0 0 45 0 45 -220 0 -220 0 0 -45z"/>
<path d="M3135 1113 c-55 -86 -108 -169 -118 -185 l-19 -28 79 0 c76 0 78 1
95 30 l17 30 115 0 115 0 18 -30 c17 -29 19 -30 95 -30 l79 0 -37 58 c-21 31
-69 107 -107 167 -96 152 -88 145 -166 145 l-66 0 -100 -157z m204 -10 l30
-53 -65 0 -66 0 23 38 c13 20 27 45 33 54 6 9 11 16 12 15 1 -1 16 -26 33 -54z"/>
<path d="M3657 1264 c-4 -4 -7 -88 -7 -186 l0 -178 215 0 215 0 0 45 0 45
-135 0 -134 0 -3 138 -3 137 -70 3 c-39 1 -74 0 -78 -4z"/>
<path d="M1924 679 c-27 -10 -54 -47 -54 -75 0 -12 9 -33 21 -48 25 -32 77
-36 102 -8 24 26 21 39 -3 17 -25 -23 -70 -23 -87 1 -20 28 -16 71 9 88 29 20
47 20 70 -1 10 -9 21 -14 24 -10 19 19 -49 49 -82 36z"/>
<path d="M2113 680 c-47 -19 -58 -92 -20 -128 49 -46 127 -12 127 56 0 30 -28
72 -49 72 -5 0 -15 2 -23 4 -7 3 -23 1 -35 -4z m76 -37 c34 -42 8 -95 -45 -95
-31 0 -64 33 -64 63 0 27 35 59 64 59 15 0 33 -11 45 -27z"/>
<path d="M2280 612 c0 -90 17 -114 22 -30 l3 51 38 -53 37 -54 -2 79 c-1 76
-2 77 -7 25 l-6 -55 -42 60 -43 60 0 -83z"/>
<path d="M2469 676 c-39 -19 -30 -48 21 -73 48 -23 56 -39 27 -57 -13 -8 -24
-7 -47 6 -31 18 -41 10 -16 -11 20 -17 77 -10 90 11 15 25 -2 49 -45 63 -23 8
-34 18 -34 31 0 23 39 31 62 12 14 -11 15 -11 12 1 -8 22 -43 31 -70 17z"/>
<path d="M3110 612 c0 -90 17 -114 22 -30 l3 51 38 -53 37 -54 -2 79 c-1 76
-2 77 -7 25 l-6 -55 -42 60 -43 60 0 -83z"/>
<path d="M3323 680 c-32 -13 -56 -55 -49 -85 16 -64 86 -86 131 -40 36 35 31
45 -17 43 -37 -1 -39 -2 -10 -5 35 -5 40 -14 17 -33 -37 -31 -105 0 -105 47 0
29 33 63 62 63 12 0 32 -10 45 -22 13 -12 23 -17 23 -11 0 29 -62 57 -97 43z"/>
<path d="M1570 605 c0 -43 4 -75 10 -75 6 0 10 32 10 75 0 43 -4 75 -10 75 -6
0 -10 -32 -10 -75z"/>
<path d="M1658 673 c20 -4 22 -10 22 -74 0 -39 4 -69 10 -69 6 0 10 30 10 69
0 58 3 70 18 74 9 3 -5 5 -33 4 -27 0 -40 -2 -27 -4z"/>
<path d="M2600 627 c0 -64 20 -97 59 -97 43 0 61 28 61 93 0 31 -4 57 -10 57
-6 0 -10 -27 -10 -60 0 -49 -3 -61 -20 -70 -14 -8 -26 -8 -40 0 -17 9 -20 21
-20 70 0 33 -4 60 -10 60 -5 0 -10 -24 -10 -53z"/>
<path d="M2780 605 l0 -75 35 0 c19 0 35 5 35 10 0 6 -11 10 -25 10 -24 0 -25
2 -25 65 0 37 -4 65 -10 65 -6 0 -10 -32 -10 -75z"/>
<path d="M2907 673 c20 -4 22 -11 26 -76 l3 -72 2 72 c2 66 4 72 25 76 12 2 0
4 -28 4 -27 0 -40 -2 -28 -4z"/>
<path d="M3030 605 c0 -43 4 -75 10 -75 6 0 10 32 10 75 0 43 -4 75 -10 75 -6
0 -10 -32 -10 -75z"/>
</g>
</svg>
