<svg width="50" height="50" viewBox="0 0 50 50" xmlns="http://www.w3.org/2000/svg" xmlns:xlink="http://www.w3.org/1999/xlink" id="Layer_1" overflow="hidden"><path d="M37.66 48.5 12.34 48.5C11.7877 48.5 11.34 48.0523 11.34 47.5L11.34 2.5C11.34 1.94772 11.7877 1.5 12.34 1.5L37.66 1.5C38.2123 1.5 38.66 1.94772 38.66 2.5L38.66 47.5C38.66 48.0523 38.2123 48.5 37.66 48.5ZM13.34 46.5 36.66 46.5 36.66 3.5 13.34 3.5Z" fill="#232F3E"/><rect x="16.09" y="6.19" width="17.81" height="2" fill="#232F3E"/><rect x="16.09" y="10.88" width="17.81" height="2" fill="#232F3E"/><rect x="16.09" y="15.56" width="17.81" height="2" fill="#232F3E"/><rect x="16.09" y="20.25" width="17.81" height="2" fill="#232F3E"/></svg>