<svg width="50" height="50" viewBox="0 0 50 50" xmlns="http://www.w3.org/2000/svg" xmlns:xlink="http://www.w3.org/1999/xlink" id="Layer_1" overflow="hidden"><path d="M34.37 37.25 15.63 37.25C15.0777 37.25 14.63 36.8023 14.63 36.25L14.63 20.25C14.63 19.6977 15.0777 19.25 15.63 19.25L34.38 19.25C34.9323 19.25 35.38 19.6977 35.38 20.25L35.38 36.25C35.38 36.8023 34.9323 37.25 34.3801 37.25 34.3767 37.25 34.3734 37.25 34.37 37.25ZM16.63 35.25 33.37 35.25 33.37 21.25 16.63 21.25Z" fill="#232F3E"/><path d="M29.61 20.26 29.61 16.21C29.5237 13.7649 27.4716 11.8527 25.0265 11.939 25.0177 11.9393 25.0088 11.9396 25 11.94L25 11.94C22.5641 11.8437 20.5041 13.7253 20.38 16.16L20.38 20.24 18.38 20.24 18.38 16.16C18.4996 12.6185 21.4579 9.83894 25 9.94L25 9.94C28.5494 9.86174 31.4927 12.6708 31.58 16.22L31.58 20.22Z" fill="#232F3E"/><path d="M25 30 25 30C23.183 30 21.71 28.527 21.71 26.71 21.71 24.893 23.183 23.42 25 23.42L25 23.42C26.8115 23.4145 28.2845 24.8785 28.29 26.69 28.29 26.6966 28.29 26.7033 28.29 26.71L28.29 26.71C28.2955 28.5215 26.8315 29.9945 25.02 30 25.0134 30 25.0067 30 25 30ZM25 25.42C24.2876 25.42 23.71 25.9976 23.71 26.71 23.71 27.4224 24.2876 28 25 28L25 28C25.7069 28.0055 26.2845 27.437 26.29 26.7301 26.2901 26.7234 26.2901 26.7167 26.29 26.71L26.29 26.71C26.2946 26.3672 26.157 26.0378 25.91 25.8 25.6716 25.554 25.3426 25.4166 25 25.42Z" fill="#232F3E"/><rect x="24" y="28.75" width="2" height="4.69" fill="#232F3E"/><path d="M25 48.5C24.7791 48.4993 24.5646 48.4255 24.39 48.29 21.2387 46.0148 17.6498 44.4178 13.85 43.6 6.12 42.22 1.5 38 1.5 32.32 1.57705 29.5666 2.44493 26.8935 4 24.62 5 22.87 5.89 21.36 5.89 19.31 5.78858 16.5604 4.55872 13.9741 2.49 12.16 2.28037 11.9922 2.14704 11.7471 2.12 11.48 2.09409 11.2124 2.17699 10.9457 2.35 10.74 2.35 10.67 7.86 4.06 9.11 2.35 9.43295 1.90198 10.0579 1.80058 10.506 2.12353 10.5579 2.16097 10.6061 2.20333 10.65 2.25 12.3715 4.29401 14.8615 5.53538 17.53 5.68 20.14 5.68 22.2 4.51 24.21 1.89 24.5486 1.4537 25.1768 1.3745 25.6131 1.71311 25.6792 1.76443 25.7387 1.82386 25.79 1.89 27.79 4.51 29.86 5.68 32.47 5.68 35.1385 5.53538 37.6285 4.29401 39.35 2.25 39.5543 2.03451 39.8437 1.92093 40.14 1.94 40.4388 1.95756 40.7139 2.10799 40.89 2.35 42.14 4.06 47.6 10.67 47.65 10.74 47.823 10.9457 47.9059 11.2124 47.88 11.48 47.853 11.7471 47.7196 11.9922 47.51 12.16 45.4518 13.982 44.2242 16.5636 44.11 19.31 44.11 21.36 44.99 22.87 46 24.62 47.5551 26.8935 48.4229 29.5666 48.5 32.32 48.5 38 43.88 42.22 36.15 43.6 32.3485 44.4125 28.7585 46.01 25.61 48.29 25.4355 48.4255 25.2209 48.4993 25 48.5ZM4.48 11.29C6.59626 13.4236 7.81629 16.2858 7.89 19.29 7.77427 21.5539 7.02594 23.7401 5.73 25.6 4.58 27.6 3.5 29.44 3.5 32.3 3.5 39.16 11.69 41.17 14.2 41.62 18.077 42.4251 21.7508 44.0069 25 46.27 28.2508 44.0139 31.9245 42.439 35.8 41.64 38.31 41.19 46.5 39.18 46.5 32.32 46.5 29.46 45.42 27.6 44.27 25.62 42.9741 23.7601 42.2257 21.5739 42.11 19.31 42.1837 16.3058 43.4037 13.4436 45.52 11.31 44.29 9.8 41.47 6.37 40 4.45 37.9925 6.43363 35.3107 7.58707 32.49 7.68 29.573 7.6837 26.8143 6.35406 25 4.07 23.19 6.34857 20.44 7.67759 17.53 7.68 14.7024 7.59206 12.0125 6.43825 10 4.45 8.53 6.37 5.71 9.8 4.48 11.29Z" fill="#232F3E"/></svg>