<svg width="50" height="50" viewBox="0 0 50 50" xmlns="http://www.w3.org/2000/svg" xmlns:xlink="http://www.w3.org/1999/xlink" id="Layer_1" overflow="hidden"><path d="M35.31 38.19 14.69 38.19C14.1377 38.19 13.69 37.7423 13.69 37.19L13.69 21.25C13.69 20.6977 14.1377 20.25 14.69 20.25L35.31 20.25C35.8623 20.25 36.31 20.6977 36.31 21.25L36.31 37.19C36.31 37.7423 35.8623 38.19 35.31 38.19ZM15.69 36.19 34.31 36.19 34.31 22.26 15.69 22.26Z" fill="#693CC5"/><rect x="24" y="29.27" width="2" height="5.04" fill="#693CC5"/><path d="M31.61 21.05 29.61 21.05 29.61 16.59C29.6107 15.3199 29.128 14.0972 28.26 13.17 27.4144 12.2716 26.2338 11.7646 25 11.77L25 11.77C22.4104 11.8138 20.3421 13.9402 20.37 16.53L20.37 21.04 18.37 21.04 18.37 16.53C18.3367 12.8335 21.3036 9.80847 25 9.77L25 9.77C26.7682 9.767 28.4601 10.49 29.68 11.77 30.9106 13.0639 31.5916 14.7844 31.58 16.57Z" fill="#693CC5"/><path d="M25 48.5C12.0213 48.5 1.5 37.9787 1.5 25 1.5 12.0213 12.0213 1.5 25 1.5 37.9787 1.5 48.5 12.0213 48.5 25 48.489 37.9741 37.9741 48.489 25 48.5ZM25 3.5C13.1259 3.5 3.5 13.1259 3.5 25 3.5 36.8741 13.1259 46.5 25 46.5 36.8741 46.5 46.5 36.8741 46.5 25 46.489 13.1304 36.8696 3.51103 25 3.5Z" fill="#693CC5"/><path d="M25 31.16C23.1499 31.1655 21.6455 29.6702 21.64 27.82 21.6345 25.9699 23.1299 24.4656 24.98 24.46 26.8301 24.4545 28.3345 25.9499 28.34 27.8 28.34 27.8033 28.34 27.8067 28.34 27.81 28.34 29.6563 26.8462 31.1545 25 31.16ZM25 26.47C24.2544 26.4645 23.6456 27.0644 23.6401 27.81 23.6346 28.5556 24.2345 29.1644 24.9801 29.1699 25.7256 29.1754 26.3345 28.5755 26.34 27.8299 26.34 27.8233 26.34 27.8166 26.34 27.81 26.34 27.0699 25.7401 26.47 25 26.47Z" fill="#693CC5"/><path d="M212-6 61-6 55.55 61.5-83 61.5-90-564 212-564 212-6Z" stroke="#A166FF" stroke-width="3" stroke-miterlimit="10" fill="none"/><path d="M-83 61 61 61 60.5-6.5 211.5-4.5 211.5 550.5-83 550.5-83 61Z" stroke="#FF4D4D" stroke-width="3" stroke-miterlimit="10" fill="none"/></svg>