<svg width="50" height="50" viewBox="0 0 50 50" xmlns="http://www.w3.org/2000/svg" xmlns:xlink="http://www.w3.org/1999/xlink" id="Layer_1" overflow="hidden"><path d="M39.4 38.36 10.6 38.36C5.6 38.36 1.78 35.03 1.52 30.44 1.52 30.23 1.52 30.03 1.52 29.81 1.36831 25.9238 3.89794 22.4394 7.64 21.38 7.64 21.17 7.64 20.96 7.64 20.75 7.64 20.54 7.64 20.41 7.64 20.25L7.64 20.25C7.96544 15.6398 10.7907 11.5784 15 9.67 19.7468 7.61978 25.2647 8.6829 28.91 12.35 30.0823 13.5012 31.0345 14.8568 31.72 16.35 32.7111 15.5931 33.923 15.1821 35.17 15.18 37.82 15.18 40.6 17.05 41.17 21.18 45.94 22.39 48.55 25.46 48.55 29.91 48.5 35.35 45.27 38.36 39.4 38.36ZM20 10.66C18.5341 10.6642 17.0833 10.9564 15.73 11.52 12.1133 13.1988 9.74469 16.7653 9.6 20.75 9.60101 21.1679 9.62773 21.5854 9.68 22 9.74588 22.504 9.42322 22.9772 8.93 23.1 6.93 23.6 3.5 25.1 3.5 29.82 3.5 30 3.5 30.17 3.5 30.34 3.69 33.83 6.67 36.34 10.58 36.34L39.4 36.34C44.18 36.34 46.5 34.22 46.5 29.87 46.5 26.15 44.31 23.82 39.99 22.94 39.5422 22.8492 39.2129 22.4664 39.19 22.01 38.98 18.4 36.88 17.12 35.19 17.12 34.0055 17.1318 32.895 17.6981 32.19 18.65 31.8535 19.0879 31.2257 19.1702 30.7878 18.8337 30.6391 18.7195 30.5255 18.5657 30.46 18.39 29.8511 16.6478 28.8524 15.0676 27.54 13.77 25.5383 11.7748 22.8262 10.6562 20 10.66Z" fill="#232F3E"/><path d="M19.67 33.64 18.29 32.19C21.7289 28.91 27.1014 28.7929 30.68 31.92L29.37 33.42C26.5653 30.9767 22.3611 31.072 19.67 33.64Z" fill="#232F3E"/><path d="M17 30.81 15.6 29.36C20.5051 24.6939 28.1588 24.5378 33.25 29L31.93 30.5C27.619 26.7352 21.151 26.8695 17 30.81Z" fill="#232F3E"/><path d="M14.28 28 12.9 26.52C19.2548 20.4522 29.1865 20.2268 35.81 26L34.5 27.52C28.6495 22.4286 19.8824 22.6367 14.28 28Z" fill="#232F3E"/></svg>